<svg width="480" height="480" viewBox="0 0 480 480" fill="none" xmlns="http://www.w3.org/2000/svg">
<path d="M463.6 383.716L382.516 302.632L320.148 276.865C340.915 247.333 352.04 212.102 352 176C352 78.953 273.047 0 176 0C78.953 0 0 78.953 0 176C0 273.047 78.953 352 176 352C212.416 352.042 247.939 340.724 277.619 319.623L303.319 381.823L384.4 462.911C389.6 468.111 395.773 472.237 402.568 475.051C409.362 477.866 416.644 479.314 423.998 479.315C431.352 479.315 438.635 477.867 445.429 475.052C452.224 472.238 458.397 468.114 463.598 462.914C468.798 457.714 472.923 451.54 475.738 444.746C478.552 437.952 480.001 430.669 480.001 423.315C480.001 415.961 478.553 408.679 475.739 401.884C472.925 395.09 468.8 388.916 463.6 383.716ZM32 176C32 96.6 96.6 32 176 32C255.4 32 320 96.6 320 176C320 255.4 255.4 320 176 320C96.6 320 32 255.4 32 176ZM440.971 440.284C436.466 444.778 430.363 447.302 424 447.302C417.637 447.302 411.534 444.778 407.029 440.284L330.457 363.712L306.563 305.877L364.4 329.771L440.973 406.343C445.467 410.848 447.99 416.951 447.99 423.314C447.989 429.677 445.465 435.78 440.971 440.284Z" fill="black"/>
</svg>
