<svg aria-hidden="true" style="position: absolute; width: 0; height: 0; overflow: hidden;" version="1.1" xmlns="http://www.w3.org/2000/svg" xmlns:xlink="http://www.w3.org/1999/xlink">
<defs>
<symbol id="icon-search" viewBox="0 0 32 32">
<path d="M30.907 25.581l-5.406-5.406-4.158-1.718c1.384-1.969 2.126-4.318 2.123-6.724 0-6.47-5.264-11.733-11.733-11.733s-11.733 5.264-11.733 11.733c0 6.47 5.264 11.733 11.733 11.733 2.428 0.003 4.796-0.752 6.775-2.158l1.713 4.147 5.405 5.406c0.347 0.347 0.758 0.622 1.211 0.809s0.938 0.284 1.429 0.284c0.49 0 0.976-0.097 1.429-0.284s0.865-0.463 1.211-0.809c0.347-0.347 0.622-0.758 0.809-1.211s0.284-0.938 0.284-1.429-0.097-0.976-0.284-1.429c-0.188-0.453-0.463-0.865-0.809-1.211zM2.133 11.733c0-5.293 4.307-9.6 9.6-9.6s9.6 4.307 9.6 9.6c0 5.293-4.307 9.6-9.6 9.6s-9.6-4.307-9.6-9.6zM29.398 29.352c-0.3 0.3-0.707 0.468-1.131 0.468s-0.831-0.168-1.131-0.468l-5.105-5.105-1.593-3.856 3.856 1.593 5.105 5.105c0.3 0.3 0.468 0.707 0.468 1.131s-0.168 0.831-0.468 1.131z"></path>
</symbol>
<symbol id="icon-film" viewBox="0 0 32 32">
<path fill="none" stroke="#fff" style="stroke: var(--color1, #fff)" stroke-linejoin="round" stroke-linecap="round" stroke-miterlimit="4" stroke-width="2.6667" d="M26.427 3.606h-20.853c-1.605 0-2.907 1.239-2.907 2.768v19.856c0 1.529 1.301 2.768 2.907 2.768h20.853c1.605 0 2.907-1.239 2.907-2.768v-19.856c0-1.529-1.301-2.768-2.907-2.768z"></path>
<path fill="none" stroke="#fff" style="stroke: var(--color1, #fff)" stroke-linejoin="round" stroke-linecap="round" stroke-miterlimit="4" stroke-width="2.6667" d="M9.333 3.606v25.391"></path>
<path fill="none" stroke="#fff" style="stroke: var(--color1, #fff)" stroke-linejoin="round" stroke-linecap="round" stroke-miterlimit="4" stroke-width="2.6667" d="M22.667 3.606v25.391"></path>
<path fill="none" stroke="#fff" style="stroke: var(--color1, #fff)" stroke-linejoin="round" stroke-linecap="round" stroke-miterlimit="4" stroke-width="2.6667" d="M2.667 16.301h26.667"></path>
<path fill="none" stroke="#fff" style="stroke: var(--color1, #fff)" stroke-linejoin="round" stroke-linecap="round" stroke-miterlimit="4" stroke-width="2.6667" d="M2.667 9.954h6.667"></path>
<path fill="none" stroke="#fff" style="stroke: var(--color1, #fff)" stroke-linejoin="round" stroke-linecap="round" stroke-miterlimit="4" stroke-width="2.6667" d="M2.667 22.649h6.667"></path>
<path fill="none" stroke="#fff" style="stroke: var(--color1, #fff)" stroke-linejoin="round" stroke-linecap="round" stroke-miterlimit="4" stroke-width="2.6667" d="M22.667 22.649h6.667"></path>
<path fill="none" stroke="#fff" style="stroke: var(--color1, #fff)" stroke-linejoin="round" stroke-linecap="round" stroke-miterlimit="4" stroke-width="2.6667" d="M22.667 9.954h6.667"></path>
</symbol>
</defs>
</svg>
